<svg width="98" height="107" viewBox="0 0 98 107" fill="none" xmlns="http://www.w3.org/2000/svg">
<path d="M1.464 80.56H9.456V83.008H4.992V88.672H8.64V91.144H4.992V100H1.464V80.56ZM11.3781 80.56H14.6181V100H11.3781V80.56ZM19.4409 100.216C18.6569 100.216 18.0729 99.928 17.6889 99.352C17.3049 98.776 17.1129 98.048 17.1129 97.168V86.128H20.3529V96.568C20.3529 97 20.4249 97.328 20.5689 97.552C20.7129 97.776 20.9609 97.888 21.3129 97.888C21.6809 97.888 22.1689 97.672 22.7769 97.24V86.128H26.0409V100H22.7769V98.68C21.7049 99.704 20.5929 100.216 19.4409 100.216ZM28.6487 81.208H31.9127V83.92H28.6487V81.208ZM28.6487 86.128H31.9127V100H28.6487V86.128ZM37.6258 100.216C36.5058 100.216 35.6658 99.824 35.1058 99.04C34.5618 98.24 34.2898 96.984 34.2898 95.272V91.024C34.2898 89.456 34.5458 88.216 35.0578 87.304C35.5858 86.376 36.4338 85.912 37.6018 85.912C38.4978 85.912 39.3298 86.28 40.0978 87.016V80.56H43.3858V100H40.0978V99.016C39.3298 99.816 38.5058 100.216 37.6258 100.216ZM38.8018 97.96C39.2178 97.96 39.6498 97.808 40.0978 97.504V88.6C39.6818 88.296 39.2498 88.144 38.8018 88.144C37.9698 88.144 37.5538 88.872 37.5538 90.328V95.512C37.5538 96.296 37.6418 96.904 37.8178 97.336C37.9938 97.752 38.3218 97.96 38.8018 97.96ZM51.393 100.264C49.377 100.264 47.937 99.728 47.073 98.656C46.209 97.568 45.777 95.984 45.777 93.904V86.608C45.777 84.544 46.209 82.984 47.073 81.928C47.937 80.872 49.377 80.344 51.393 80.344C53.393 80.344 54.825 80.872 55.689 81.928C56.553 82.984 56.985 84.544 56.985 86.608V93.904C56.985 95.968 56.545 97.544 55.665 98.632C54.801 99.72 53.377 100.264 51.393 100.264ZM51.393 97.648C52.177 97.648 52.705 97.4 52.977 96.904C53.249 96.408 53.385 95.688 53.385 94.744V85.792C53.385 84.848 53.249 84.136 52.977 83.656C52.721 83.176 52.193 82.936 51.393 82.936C50.593 82.936 50.057 83.184 49.785 83.68C49.513 84.16 49.377 84.864 49.377 85.792V94.744C49.377 95.688 49.513 96.408 49.785 96.904C50.057 97.4 50.593 97.648 51.393 97.648ZM59.9724 88.384H58.5084V86.128H59.9724V85.24C59.9724 84.312 60.0524 83.56 60.2124 82.984C60.3884 82.392 60.7244 81.936 61.2204 81.616C61.7164 81.296 62.4444 81.136 63.4044 81.136C63.8844 81.136 64.4284 81.184 65.0364 81.28V83.68C64.6844 83.616 64.4044 83.584 64.1964 83.584C63.8444 83.584 63.5964 83.704 63.4524 83.944C63.3084 84.168 63.2364 84.52 63.2364 85V86.128H66.0684V85.24C66.0684 84.296 66.1484 83.536 66.3084 82.96C66.4684 82.384 66.7964 81.936 67.2924 81.616C67.7884 81.296 68.5164 81.136 69.4764 81.136C69.9724 81.136 70.5244 81.184 71.1324 81.28V83.68C70.8124 83.616 70.5324 83.584 70.2924 83.584C69.9244 83.584 69.6684 83.704 69.5244 83.944C69.3804 84.168 69.3084 84.52 69.3084 85V86.128H75.3564V100H72.1164V88.384H69.3084V100H66.0684V88.384H63.2364V100H59.9724V88.384ZM72.2844 81.208H75.3804V83.92H72.2844V81.208ZM82.0881 100.216C80.5361 100.216 79.4081 99.784 78.7041 98.92C78.0001 98.04 77.6481 96.784 77.6481 95.152V90.976C77.6481 89.328 78.0001 88.072 78.7041 87.208C79.4081 86.344 80.5361 85.912 82.0881 85.912C83.5601 85.912 84.6321 86.264 85.3041 86.968C85.9921 87.672 86.3361 88.744 86.3361 90.184V91.336H83.2641V90.112C83.2641 89.392 83.1761 88.896 83.0001 88.624C82.8401 88.352 82.5441 88.216 82.1121 88.216C81.6481 88.216 81.3281 88.384 81.1521 88.72C80.9921 89.056 80.9121 89.672 80.9121 90.568V95.656C80.9121 96.52 81.0001 97.112 81.1761 97.432C81.3681 97.752 81.6801 97.912 82.1121 97.912C82.5601 97.912 82.8641 97.768 83.0241 97.48C83.1841 97.176 83.2641 96.696 83.2641 96.04V94.552H86.3361V95.872C86.3361 97.296 85.9921 98.376 85.3041 99.112C84.6161 99.848 83.5441 100.216 82.0881 100.216ZM92.7058 100.216C91.1698 100.216 90.0418 99.792 89.3218 98.944C88.6018 98.08 88.2418 96.808 88.2418 95.128V91C88.2418 89.304 88.6018 88.032 89.3218 87.184C90.0578 86.336 91.1858 85.912 92.7058 85.912C94.2738 85.912 95.3778 86.352 96.0178 87.232C96.6738 88.112 97.0018 89.44 97.0018 91.216V93.208H91.4818V95.944C91.4818 96.616 91.5778 97.104 91.7698 97.408C91.9778 97.712 92.2978 97.864 92.7298 97.864C93.1458 97.864 93.4418 97.72 93.6178 97.432C93.8098 97.128 93.9058 96.672 93.9058 96.064V94.888H96.9778V95.848C96.9778 97.272 96.6178 98.36 95.8978 99.112C95.1778 99.848 94.1138 100.216 92.7058 100.216ZM93.9058 91.6V90.28C93.9058 89.56 93.8178 89.048 93.6418 88.744C93.4658 88.424 93.1538 88.264 92.7058 88.264C92.2418 88.264 91.9218 88.432 91.7458 88.768C91.5698 89.104 91.4818 89.728 91.4818 90.64V91.6H93.9058Z" fill="#696969"/>
<path d="M28.7917 8.875V62.125H46.5417V51.7708H52.4584V62.125H70.2084V8.875H28.7917ZM34.7084 14.7917H40.625V20.7083H34.7084V14.7917ZM46.5417 14.7917H52.4584V20.7083H46.5417V14.7917ZM58.375 14.7917H64.2917V20.7083H58.375V14.7917ZM34.7084 26.625H40.625V32.5417H34.7084V26.625ZM46.5417 26.625H52.4584V32.5417H46.5417V26.625ZM58.375 26.625H64.2917V32.5417H58.375V26.625ZM34.7084 38.4583H40.625V44.375H34.7084V38.4583ZM46.5417 38.4583H52.4584V44.375H46.5417V38.4583ZM58.375 38.4583H64.2917V44.375H58.375V38.4583ZM34.7084 50.2917H40.625V56.2083H34.7084V50.2917ZM58.375 50.2917H64.2917V56.2083H58.375V50.2917Z" fill="#6A87FF"/>
</svg>
